<?xml version="1.0" standalone="no"?>
<!DOCTYPE svg PUBLIC "-//W3C//DTD SVG 20010904//EN"
 "http://www.w3.org/TR/2001/REC-SVG-20010904/DTD/svg10.dtd">
<svg version="1.0" xmlns="http://www.w3.org/2000/svg"
 width="351.000000pt" height="351.000000pt" viewBox="0 0 351.000000 351.000000"
 preserveAspectRatio="xMidYMid meet">
<metadata>
Created by potrace 1.11, written by Peter Selinger 2001-2013
</metadata>
<g transform="translate(0.000000,351.000000) scale(0.100000,-0.100000)"
fill="#000000" stroke="none">
<path d="M1636 3433 c-1 -1 -27 -5 -57 -7 -69 -7 -125 -15 -169 -26 -19 -5
-46 -11 -60 -14 -56 -10 -230 -71 -310 -109 -470 -223 -802 -631 -925 -1140
-33 -137 -40 -208 -39 -402 1 -158 13 -254 48 -405 32 -136 139 -373 232 -510
213 -316 528 -553 886 -666 95 -30 241 -61 333 -70 123 -13 344 -7 435 11 14
3 41 8 60 11 69 12 209 51 265 74 126 53 177 76 215 98 51 28 140 83 155 94 6
5 33 25 60 45 133 99 276 250 379 402 143 209 236 463 275 741 10 67 8 394 -2
420 -3 8 -8 34 -11 57 -21 170 -126 444 -235 613 -91 142 -231 303 -340 390
-24 19 -48 40 -55 46 -19 17 -131 92 -188 124 -198 114 -437 192 -660 216 -61
7 -287 12 -292 7z"/>
</g>
</svg>
